<svg xmlns="http://www.w3.org/2000/svg" viewBox="0 0 59 61.03"><defs><style>.cls-1{fill:#fff;stroke:#000;stroke-miterlimit:10;}.cls-2,.cls-3{fill:#999;}.cls-2,.cls-4{fill-rule:evenodd;}.cls-4{fill:#800;}.cls-5{fill:#009dda;}</style></defs><title>Asset 4</title><g id="Layer_2" data-name="Layer 2"><g id="content.01"><path class="cls-1" d="M58.5.5c-19,0-38.25,6-58,6v54c19.75,0,39-6,58-6Z"/><g id="XMrHip"><path class="cls-2" d="M10.51,48.83c-.18.45-.34.91-.55,1.35a.87.87,0,0,1-.42.41c-.29.11-.48,0-.59-.33s-.36-.88-.54-1.32l-.16,0c0,.17,0,.33,0,.49,0,.91,0,1.81,0,2.72,0,.34-.11.48-.46.46a7.32,7.32,0,0,0-.94,0c-.31,0-.4-.12-.4-.4q0-4,0-8.05c0-.3.11-.4.41-.41,1.32-.08,1.32-.1,1.7,1.16l.72,2.38a.77.77,0,0,0,.28.42c.05-.14.11-.29.16-.43.32-1.05.65-2.1.93-3.17a.61.61,0,0,1,.64-.54c1.25-.08,1.25-.1,1.25,1.15q0,3.48,0,7c0,.66,0,.66-.63.71-1.15.08-1.15.08-1.15-1.09,0-.68,0-1.35,0-2,0-.15,0-.3,0-.45Z"/><path class="cls-2" d="M21.4,47.56v2.69c0,1.09,0,1.09-1.09,1.25-.69.1-.69.1-.69-.6,0-2.54,0-5.07,0-7.6,0-.42.09-.6.54-.65,1-.11.78-.15,1.09.58s.71,1.66,1.06,2.49a4.69,4.69,0,0,0,.23.42l.14,0c0-.17,0-.33,0-.5,0-.94,0-1.88,0-2.81,0-.37.09-.54.5-.6C24.5,42,24.5,42,24.5,43.25c0,2.35,0,4.71,0,7.06,0,.43-.11.59-.55.64-.91.1-.74.24-1.09-.56L21.8,47.9a4.53,4.53,0,0,0-.23-.42Z"/><path class="cls-2" d="M18.37,47.9c0,1.12,0,2.24,0,3.35,0,.37-.08.53-.49.58C16.6,52,16.58,52,16.6,50.7c0-.42-.1-.56-.55-.51s-.57.19-.56.63c0,1.31,0,1.31-1.32,1.43-.34,0-.46-.06-.46-.4,0-2.25,0-4.5,0-6.76,0-1.17.54-1.7,1.72-1.83.46-.05.92-.11,1.38-.15,1-.09,1.5.32,1.53,1.3,0,1.16,0,2.33,0,3.5Zm-1.79-1.24c0-.54,0-1.08,0-1.63,0-.37-.19-.39-.46-.32s-.64-.09-.63.43c0,1.08,0,2.17,0,3.25,0,.51.38.28.64.29s.47-.09.46-.44C16.57,47.72,16.59,47.19,16.59,46.66Z"/><path class="cls-2" d="M49.28,42.9c0-.91,0-1.81,0-2.72A1.59,1.59,0,0,1,51,38.35c.46,0,.92,0,1.38,0,1.1,0,1.6.45,1.64,1.57s0,2.34,0,3.51c0,.71,0,1.42,0,2.12,0,1.16-.54,1.63-1.7,1.66l-1.43.05a1.37,1.37,0,0,1-1.65-1.5s0-.07,0-.1Zm3-3.07a5.78,5.78,0,0,1-.62,0c-.46,0-.63.13-.62.62q0,2.34,0,4.68c0,.49.19.57.61.54s.66,0,.64-.55c0-1.16,0-2.33,0-3.5Z"/><path class="cls-2" d="M40.63,46.71a5.89,5.89,0,0,0,.84-.13.52.52,0,0,0,.26-.35,7.94,7.94,0,0,0,0-1.38.49.49,0,0,0-.39-.33,5.14,5.14,0,0,0-.93.09A1.32,1.32,0,0,1,38.8,43.3a21.61,21.61,0,0,1,0-2.32,1.55,1.55,0,0,1,1.32-1.52,15.1,15.1,0,0,1,2-.27,1.12,1.12,0,0,1,1.31,1.12v.1C43.6,41.76,43.37,42,42,42c-.11,0-.22-.15-.29-.26s0-.19,0-.29c0-.74-.2-.87-.94-.59a.48.48,0,0,0-.23.33,9.27,9.27,0,0,0,0,1.43.49.49,0,0,0,.39.31,8.29,8.29,0,0,0,1-.07,1.26,1.26,0,0,1,1.47,1.2,17.69,17.69,0,0,1,0,2.51A1.49,1.49,0,0,1,42.09,48c-.64.1-1.28.19-1.93.26a1.11,1.11,0,0,1-1.36-1,6.71,6.71,0,0,1,0-1.23c0-.11.18-.24.28-.35s.06,0,.1,0c.43-.07,1-.33,1.24-.16S40.56,46.23,40.63,46.71Z"/><path class="cls-2" d="M38,47.11a.94.94,0,0,1,.06.12c.08,1.37.08,1.36-1.29,1.58-.84.13-1.68.26-2.52.41-.32.06-.44,0-.44-.35q0-4,0-8c0-.31.13-.42.41-.47l3.46-.56c.3,0,.41,0,.39.35-.08,1.34.07,1.1-1.12,1.3-1.35.22-1.35.22-1.35,1.59,0,.7,0,.7.7.59a3.21,3.21,0,0,0,.35-.06c.34-.09.5,0,.43.37a1.09,1.09,0,0,0,0,.15c0,1.12,0,.91-1,1.06-.37.06-.55.18-.52.58a10,10,0,0,1,0,1.28c0,.38.13.46.49.39C36.68,47.29,37.32,47.21,38,47.11Z"/><path class="cls-2" d="M32.07,44.33c0,.22,0,.37,0,.51,0,1,0,1-1,1.15-.36.06-.49.19-.48.56,0,.93,0,1.88,0,2.81,0,.32-.06.48-.43.55-1.35.25-1.35.26-1.35-1.09,0-2.32,0-4.64,0-7,0-.49.16-.64.62-.7,1-.15,2.07-.33,3.11-.53.36-.07.49,0,.46.4-.09,1.21.11,1-1.09,1.24s-1.31.22-1.31,1.48c0,.87-.12.84.82.68Z"/><path class="cls-2" d="M45.43,44c0-1.05,0-2.1,0-3.16,0-.35-.06-.49-.45-.45-.9.11-.87.09-.87-.82,0-.46.14-.65.62-.69,1.13-.09,2.27-.21,3.4-.32.34,0,.5.07.43.42a2.31,2.31,0,0,0,0,.25c0,.83,0,.85-.86.89-.4,0-.5.18-.5.56,0,2.09,0,4.18,0,6.26,0,.41-.08.59-.54.62-1.25.09-1.25.12-1.25-1.16Z"/><path class="cls-2" d="M27.54,45.93c0,1.3,0,2.6,0,3.89,0,.38-.07.56-.51.63-1.28.2-1.28.21-1.28-1.09,0-2.32,0-4.64,0-7,0-.46.1-.65.59-.73,1.2-.17,1.2-.2,1.2,1Z"/></g><path class="cls-3" d="M54.07,51.08c-15.89.09-31.78,5.43-47.67,5.53-.23,0-.42-.12-.42-.35s.19-.35.42-.35c15.89-.09,31.78-5.43,47.67-5.53.23,0,.42.12.42.34S54.3,51.08,54.07,51.08Z"/><path class="cls-3" d="M54.07,49.69c-15.89.09-31.78,5.43-47.67,5.53a.17.17,0,1,1,0-.35c15.89-.09,31.78-5.43,47.67-5.53a.17.17,0,1,1,0,.35Z"/><path class="cls-3" d="M54.07,5.7c-15.89.09-31.78,5.43-47.67,5.53-.23,0-.42-.12-.42-.35s.19-.35.42-.35C22.3,10.44,38.18,5.1,54.07,5c.23,0,.42.12.42.34S54.3,5.7,54.07,5.7Z"/><path class="cls-3" d="M54.07,6.74c-15.89.09-31.78,5.43-47.67,5.53a.17.17,0,0,1-.18-.17.18.18,0,0,1,.18-.17c15.89-.09,31.78-5.43,47.67-5.53a.17.17,0,0,1,.18.17A.18.18,0,0,1,54.07,6.74Z"/><path class="cls-3" d="M8.43,22.6c-1.49,0-2.42-1-2.42-2.73V17.53C6,15.81,6.86,15,8.23,15q1.22,0,2.44-.11c1.38-.08,2.23.61,2.23,2.33v1.29a.32.32,0,0,1-.29.32l-2,.25a.26.26,0,0,1-.29-.26V17.37a.23.23,0,0,0-.24-.23l-1.2.05a.27.27,0,0,0-.29.25v2.4a.42.42,0,0,0,.48.46l1.44,0c1.51-.05,2.42.86,2.42,2.58v2.31c0,1.71-.85,2.57-2.21,2.65q-1.22.07-2.43.11C6.86,28,6,27.18,6,25.46V24.17a.3.3,0,0,1,.29-.3l2-.15a.26.26,0,0,1,.29.27v1.46a.22.22,0,0,0,.24.23l1.22-.06a.27.27,0,0,0,.28-.24V23c0-.26-.11-.44-.48-.44Z"/><path class="cls-3" d="M17.32,16.49a.27.27,0,0,0-.24.27v2.51a.23.23,0,0,0,.29.24L19,19.3c.18,0,.29.07.28.24l-.11,1.69a.36.36,0,0,1-.31.3l-1.51.19a.27.27,0,0,0-.24.27v2.73c0,.17.09.27.24.25q1.55-.19,3.1-.41c.18,0,.29.07.28.24q-.06.85-.11,1.69a.36.36,0,0,1-.31.3c-1.84.26-3.68.49-5.52.68a.23.23,0,0,1-.28-.25V14.87a.28.28,0,0,1,.28-.3c1.89-.19,3.78-.43,5.66-.7.18,0,.29.07.28.24q-.06.85-.11,1.7a.37.37,0,0,1-.31.3Z"/><path class="cls-3" d="M24.11,26.21c-1.36.22-2.21-.43-2.21-2.15V16.13a2.52,2.52,0,0,1,2.21-2.83l2.34-.38c1.36-.23,2.23.4,2.23,2.11V16.4a.34.34,0,0,1-.29.33l-2,.41c-.18,0-.3-.06-.3-.23V15.43c0-.15-.13-.22-.29-.19l-1.05.17a.28.28,0,0,0-.24.28v8c0,.17.11.26.29.23l1-.17a.3.3,0,0,0,.26-.28V22.07a.33.33,0,0,1,.3-.33l2-.41a.23.23,0,0,1,.29.23V23a2.58,2.58,0,0,1-2.23,2.87Z"/><path class="cls-3" d="M32.46,24.81c-1.37.23-2.21-.4-2.21-2.11V12.53a.29.29,0,0,1,.28-.31l2-.35c.16,0,.28,0,.28.21v10.2c0,.15.13.22.29.19l1.22-.2A.27.27,0,0,0,34.6,22q0-5.1,0-10.2a.32.32,0,0,1,.3-.31l2-.32c.18,0,.3,0,.3.21V21.54A2.54,2.54,0,0,1,35,24.38Z"/><path class="cls-3" d="M41.91,21a.31.31,0,0,0-.29.28v1.86a.3.3,0,0,1-.28.31l-2,.29a.23.23,0,0,1-.28-.24V11.12a.33.33,0,0,1,.28-.32q2.13-.31,4.26-.57c1.37-.16,2.23.53,2.23,2.24V18A2.38,2.38,0,0,1,45,20a.3.3,0,0,0-.05.36l.92,2.17a.21.21,0,0,1-.18.33l-2,.23a.32.32,0,0,1-.35-.2L42.48,21a.19.19,0,0,0-.22-.12Zm1.27-8.2a.23.23,0,0,0-.29-.24l-1,.13a.27.27,0,0,0-.24.27v5.59a.23.23,0,0,0,.29.24l1-.13a.28.28,0,0,0,.24-.31Z"/><path class="cls-3" d="M50.3,11.84a.25.25,0,0,0-.24.25V14.6a.25.25,0,0,0,.29.26L52,14.79c.18,0,.29.1.28.27l-.11,1.68a.32.32,0,0,1-.31.27l-1.51.07a.25.25,0,0,0-.24.25v2.73c0,.17.09.27.24.26q1.55-.08,3.1-.11c.18,0,.29.11.28.27l-.11,1.68a.31.31,0,0,1-.31.26c-1.84,0-3.68.13-5.52.28a.23.23,0,0,1-.28-.25V10.1a.28.28,0,0,1,.28-.3c1.89-.15,3.77-.25,5.66-.28.18,0,.29.11.28.27l-.11,1.68a.31.31,0,0,1-.31.26Q51.78,11.76,50.3,11.84Z"/><path class="cls-3" d="M8.62,37.08c-1.48,0-2.39-1-2.39-2.69V32.08c0-1.69.84-2.46,2.19-2.5q1.2,0,2.4-.11c1.37-.09,2.21.6,2.21,2.3V33a.32.32,0,0,1-.29.32l-2,.25a.26.26,0,0,1-.29-.26V31.91a.22.22,0,0,0-.24-.22L9,31.75c-.16,0-.29.1-.29.25v2.37a.42.42,0,0,0,.47.46l1.42,0c1.49-.05,2.39.85,2.39,2.54V39.6c0,1.69-.84,2.54-2.19,2.62q-1.2.07-2.4.11c-1.37,0-2.2-.73-2.2-2.42V38.64a.3.3,0,0,1,.29-.29l2-.15a.25.25,0,0,1,.29.26V39.9a.22.22,0,0,0,.24.23l1.2-.06a.27.27,0,0,0,.27-.23V37.48c0-.26-.11-.43-.47-.43Z"/><path class="cls-3" d="M17.4,31a.26.26,0,0,0-.24.27v2.48a.23.23,0,0,0,.29.24l1.58-.2c.18,0,.29.07.27.24l-.11,1.67a.35.35,0,0,1-.31.3l-1.49.19a.27.27,0,0,0-.24.27v2.7c0,.16.09.26.24.25q1.53-.19,3.06-.41c.18,0,.29.07.27.23,0,.56-.07,1.12-.11,1.67a.36.36,0,0,1-.31.3c-1.82.26-3.63.49-5.45.67a.22.22,0,0,1-.27-.25V29.44a.28.28,0,0,1,.27-.3c1.86-.19,3.73-.43,5.59-.7.18,0,.29.07.27.23,0,.56-.07,1.12-.11,1.67a.36.36,0,0,1-.31.3Z"/><path class="cls-3" d="M22.24,40.93A.21.21,0,0,1,22,40.7v-10a2.49,2.49,0,0,1,2.19-2.8l2.31-.38c1.35-.23,2.2.39,2.2,2.09v10a.33.33,0,0,1-.29.32l-2,.33c-.18,0-.29-.06-.29-.22v-2.1c0-.16-.11-.25-.29-.22l-1,.17a.28.28,0,0,0-.24.28v2.13a.31.31,0,0,1-.27.32Zm3.86-5.72V30a.2.2,0,0,0-.25-.19L24.78,30a.28.28,0,0,0-.24.27v5.23c0,.16.11.25.29.23l1-.17A.31.31,0,0,0,26.11,35.21Z"/><path class="cls-3" d="M33.3,36.74A.32.32,0,0,0,33,37v1.84a.3.3,0,0,1-.27.32l-2,.34a.22.22,0,0,1-.27-.23V27.1a.33.33,0,0,1,.27-.32l4.21-.71c1.35-.22,2.2.41,2.2,2.1v5.48a2.47,2.47,0,0,1-.78,2,.31.31,0,0,0-.05.36l.91,2.1a.22.22,0,0,1-.18.34l-2,.33a.3.3,0,0,1-.35-.18l-.78-1.84a.18.18,0,0,0-.22-.11Zm1.26-8.15c0-.16-.11-.25-.29-.22l-1,.17a.28.28,0,0,0-.24.28v5.52c0,.16.11.25.29.22l1-.17a.29.29,0,0,0,.24-.31Z"/><path class="cls-3" d="M40.86,37.91c-1.35.19-2.19-.45-2.19-2.14V27.93a2.45,2.45,0,0,1,2.19-2.77l2.31-.3c1.35-.16,2.2.52,2.2,2.21v1.35a.31.31,0,0,1-.29.3l-2,.3a.23.23,0,0,1-.29-.24V27.32c0-.15-.13-.22-.29-.2l-1,.14a.27.27,0,0,0-.24.27V35.4a.23.23,0,0,0,.29.23l1-.13a.29.29,0,0,0,.26-.27V33.88a.3.3,0,0,1,.29-.31l2-.3a.24.24,0,0,1,.29.24V34.9a2.39,2.39,0,0,1-2.2,2.71Z"/><path class="cls-3" d="M49.84,31.6a.29.29,0,0,0-.29.27v4.86a.27.27,0,0,1-.27.29l-2,.15a.24.24,0,0,1-.27-.25V24.72a.3.3,0,0,1,.27-.3l2-.15a.23.23,0,0,1,.27.25v4.63a.25.25,0,0,0,.29.25l1.26-.06a.27.27,0,0,0,.25-.28V24.43a.27.27,0,0,1,.25-.28l2-.05a.24.24,0,0,1,.25.27v12.2a.25.25,0,0,1-.25.28l-2,.05a.24.24,0,0,1-.25-.26V31.79a.26.26,0,0,0-.29-.26Z"/><g id="XMrHip-2" data-name="XMrHip"><path class="cls-4" d="M10.51,48.48c-.18.45-.34.91-.55,1.35a.87.87,0,0,1-.42.41c-.29.11-.48,0-.59-.33s-.36-.88-.54-1.32l-.16,0c0,.16,0,.33,0,.49,0,.91,0,1.81,0,2.72,0,.34-.11.48-.46.46a7,7,0,0,0-.94,0c-.31,0-.4-.12-.4-.4q0-4,0-8.05c0-.3.11-.4.41-.41,1.32-.08,1.32-.1,1.7,1.16L9.23,47a.77.77,0,0,0,.28.42c.05-.14.11-.29.16-.43.32-1.05.65-2.1.93-3.17a.61.61,0,0,1,.64-.54c1.25-.08,1.25-.1,1.25,1.15q0,3.48,0,7c0,.66,0,.66-.63.71-1.15.08-1.15.08-1.15-1.09,0-.68,0-1.35,0-2,0-.15,0-.3,0-.46Z"/><path class="cls-4" d="M21.4,47.21v2.7c0,1.09,0,1.09-1.09,1.25-.69.1-.69.1-.69-.6,0-2.53,0-5.07,0-7.6,0-.42.09-.6.54-.65,1-.11.78-.15,1.09.58s.71,1.66,1.06,2.5c.06.15.15.28.23.42l.14,0c0-.16,0-.33,0-.5,0-.94,0-1.88,0-2.81,0-.37.09-.54.5-.6,1.28-.2,1.28-.22,1.28,1.06,0,2.35,0,4.71,0,7.06,0,.43-.11.6-.55.64-.91.1-.74.24-1.09-.56L21.8,47.56a4.42,4.42,0,0,0-.23-.42Z"/><path class="cls-4" d="M18.37,47.55c0,1.12,0,2.24,0,3.35,0,.37-.08.53-.49.58-1.29.15-1.31.16-1.29-1.13,0-.42-.1-.56-.55-.51s-.57.19-.56.63c0,1.31,0,1.31-1.32,1.43-.34,0-.46-.06-.46-.41,0-2.25,0-4.5,0-6.76,0-1.17.54-1.7,1.72-1.83.46-.05.92-.11,1.38-.15,1-.09,1.5.32,1.53,1.3,0,1.16,0,2.33,0,3.5Zm-1.79-1.24c0-.54,0-1.08,0-1.63,0-.37-.19-.39-.46-.32s-.64-.09-.63.43c0,1.08,0,2.17,0,3.25,0,.51.38.28.64.29s.47-.09.46-.44C16.57,47.37,16.59,46.84,16.59,46.31Z"/><path class="cls-4" d="M49.28,42.56c0-.91,0-1.81,0-2.72A1.59,1.59,0,0,1,51,38c.46,0,.92,0,1.38,0,1.1,0,1.6.45,1.64,1.57s0,2.34,0,3.51c0,.71,0,1.42,0,2.12,0,1.16-.54,1.63-1.7,1.66l-1.43.05a1.37,1.37,0,0,1-1.65-1.5s0-.07,0-.1Zm3-3.07a5.47,5.47,0,0,1-.62,0c-.46,0-.63.13-.62.62q0,2.34,0,4.68c0,.49.19.57.61.54s.66,0,.64-.55c0-1.16,0-2.33,0-3.5Z"/><path class="cls-4" d="M40.63,46.37a5.77,5.77,0,0,0,.84-.13.52.52,0,0,0,.26-.35,7.94,7.94,0,0,0,0-1.38.49.49,0,0,0-.39-.33,5.23,5.23,0,0,0-.93.09A1.32,1.32,0,0,1,38.8,43a21.61,21.61,0,0,1,0-2.32,1.55,1.55,0,0,1,1.32-1.52,15.12,15.12,0,0,1,2-.27A1.12,1.12,0,0,1,43.45,40v.1c.14,1.35-.09,1.61-1.46,1.63-.11,0-.22-.15-.29-.26s0-.19,0-.29c0-.74-.2-.87-.94-.59a.48.48,0,0,0-.23.33,9.26,9.26,0,0,0,0,1.43.48.48,0,0,0,.39.31,8.48,8.48,0,0,0,1-.07,1.26,1.26,0,0,1,1.47,1.2,17.7,17.7,0,0,1,0,2.51,1.49,1.49,0,0,1-1.34,1.41c-.64.1-1.28.19-1.93.26a1.12,1.12,0,0,1-1.36-1,6.71,6.71,0,0,1,0-1.23c0-.11.18-.24.28-.35s.06,0,.1,0c.43-.07,1-.33,1.24-.16S40.56,45.88,40.63,46.37Z"/><path class="cls-4" d="M38,46.76a.85.85,0,0,1,.06.12c.08,1.37.08,1.36-1.29,1.58-.84.13-1.68.26-2.52.41-.32.06-.44,0-.44-.35q0-4,0-8c0-.31.13-.42.41-.47l3.46-.56c.3,0,.41,0,.39.35-.08,1.34.07,1.1-1.12,1.3-1.35.22-1.35.22-1.35,1.59,0,.7,0,.7.7.59a3,3,0,0,0,.35-.06c.34-.09.5,0,.43.37a1.08,1.08,0,0,0,0,.15c0,1.12,0,.91-1,1.06-.37.06-.55.17-.52.58a10,10,0,0,1,0,1.28c0,.38.13.46.49.4C36.68,46.95,37.32,46.86,38,46.76Z"/><path class="cls-4" d="M32.07,44c0,.22,0,.37,0,.51,0,1,0,1-1,1.16-.36.06-.49.19-.48.56,0,.93,0,1.88,0,2.81,0,.32-.06.48-.43.55-1.35.25-1.35.26-1.35-1.09,0-2.32,0-4.64,0-7,0-.49.16-.64.62-.7,1-.15,2.07-.33,3.11-.53.36-.07.49,0,.46.4-.09,1.21.11,1-1.09,1.24s-1.31.22-1.31,1.48c0,.87-.12.84.82.68Z"/><path class="cls-4" d="M45.43,43.6c0-1.05,0-2.1,0-3.16,0-.35-.06-.49-.45-.45-.9.11-.87.09-.87-.82,0-.46.14-.65.62-.69,1.13-.09,2.27-.21,3.4-.32.34,0,.5.07.43.42a2.31,2.31,0,0,0,0,.25c0,.83,0,.85-.86.89-.4,0-.5.18-.5.56,0,2.09,0,4.18,0,6.26,0,.41-.08.58-.54.62-1.25.09-1.25.12-1.25-1.16Z"/><path class="cls-4" d="M27.54,45.58c0,1.3,0,2.6,0,3.89,0,.38-.07.56-.51.63-1.28.2-1.28.21-1.28-1.09,0-2.32,0-4.64,0-7,0-.46.1-.65.59-.73,1.2-.17,1.2-.2,1.2,1Z"/></g><path d="M54.07,50.73c-15.89.09-31.78,5.43-47.67,5.53-.23,0-.42-.12-.42-.34s.19-.35.42-.35C22.3,55.47,38.18,50.13,54.07,50c.23,0,.42.12.42.34S54.3,50.73,54.07,50.73Z"/><path d="M54.07,49.35c-15.89.09-31.78,5.43-47.67,5.53a.17.17,0,0,1-.18-.17.18.18,0,0,1,.18-.17C22.3,54.44,38.18,49.09,54.07,49a.17.17,0,1,1,0,.35Z"/><path d="M54.07,5.35c-15.89.09-31.78,5.43-47.67,5.53-.23,0-.42-.11-.42-.34s.19-.35.42-.35c15.89-.09,31.78-5.43,47.67-5.53.23,0,.42.12.42.35S54.3,5.35,54.07,5.35Z"/><path d="M54.07,6.39c-15.89.09-31.78,5.43-47.67,5.53a.17.17,0,0,1-.18-.17.18.18,0,0,1,.18-.17C22.3,11.48,38.18,6.13,54.07,6a.17.17,0,0,1,.18.17A.18.18,0,0,1,54.07,6.39Z"/><path class="cls-5" d="M8.43,22.25c-1.49,0-2.42-1-2.42-2.73V17.18c0-1.72.85-2.48,2.21-2.52q1.22,0,2.44-.11c1.38-.08,2.23.61,2.23,2.33v1.29a.32.32,0,0,1-.29.32l-2,.25a.26.26,0,0,1-.29-.26V17a.23.23,0,0,0-.24-.23l-1.2.05a.27.27,0,0,0-.29.25v2.4A.42.42,0,0,0,9,20l1.44,0c1.51-.05,2.42.86,2.42,2.58v2.31c0,1.71-.85,2.57-2.21,2.65q-1.22.07-2.43.11C6.86,27.61,6,26.83,6,25.11V23.82a.3.3,0,0,1,.29-.3l2-.15a.26.26,0,0,1,.29.27V25.1a.22.22,0,0,0,.24.23l1.22-.06a.27.27,0,0,0,.28-.24V22.67c0-.26-.11-.44-.48-.44Z"/><path class="cls-5" d="M17.32,16.14a.27.27,0,0,0-.24.27v2.51a.23.23,0,0,0,.29.24L19,19c.18,0,.29.07.28.24l-.11,1.69a.36.36,0,0,1-.31.3l-1.51.19a.27.27,0,0,0-.24.27v2.73c0,.17.09.27.24.25q1.55-.19,3.1-.41c.18,0,.29.07.28.24q-.06.85-.11,1.69a.36.36,0,0,1-.31.3c-1.84.26-3.68.49-5.52.68a.23.23,0,0,1-.28-.25V14.52a.28.28,0,0,1,.28-.3c1.89-.19,3.78-.43,5.66-.7.18,0,.29.07.28.24q-.06.85-.11,1.7a.36.36,0,0,1-.31.3Q18.79,16,17.32,16.14Z"/><path class="cls-5" d="M24.11,25.87c-1.36.22-2.21-.43-2.21-2.14V15.79A2.52,2.52,0,0,1,24.11,13l2.34-.38c1.36-.23,2.23.4,2.23,2.11V16a.34.34,0,0,1-.29.33l-2,.41c-.18,0-.3-.06-.3-.23V15.09c0-.15-.13-.22-.29-.19l-1.05.17a.28.28,0,0,0-.24.28v8c0,.17.11.26.29.23l1-.17a.3.3,0,0,0,.26-.28V21.73a.33.33,0,0,1,.3-.33l2-.41a.23.23,0,0,1,.29.23v1.4a2.58,2.58,0,0,1-2.23,2.87Z"/><path class="cls-5" d="M32.46,24.46c-1.37.23-2.21-.4-2.21-2.11V12.18a.29.29,0,0,1,.28-.31l2-.35c.16,0,.28,0,.28.21v10.2c0,.15.13.22.29.19l1.22-.2a.27.27,0,0,0,.24-.28q0-5.1,0-10.21a.32.32,0,0,1,.3-.31l2-.33c.18,0,.3,0,.3.21V21.19A2.54,2.54,0,0,1,35,24Z"/><path class="cls-5" d="M41.91,20.62a.31.31,0,0,0-.29.28v1.86a.3.3,0,0,1-.28.31l-2,.29a.23.23,0,0,1-.28-.24V10.77a.33.33,0,0,1,.28-.32q2.13-.31,4.26-.57c1.37-.16,2.23.53,2.23,2.24v5.55a2.38,2.38,0,0,1-.79,2,.3.3,0,0,0-.05.36l.92,2.17a.21.21,0,0,1-.18.33l-2,.23a.32.32,0,0,1-.35-.2l-.79-1.89a.19.19,0,0,0-.22-.12Zm1.27-8.2a.23.23,0,0,0-.29-.24l-1,.13a.27.27,0,0,0-.24.27v5.59a.23.23,0,0,0,.29.24l1-.13a.28.28,0,0,0,.24-.31Z"/><path class="cls-5" d="M50.3,11.49a.25.25,0,0,0-.24.25v2.51a.25.25,0,0,0,.29.26L52,14.45c.18,0,.29.1.28.27l-.11,1.68a.32.32,0,0,1-.31.27l-1.51.07a.25.25,0,0,0-.24.25v2.73c0,.17.09.27.24.26q1.55-.08,3.1-.11c.18,0,.29.11.28.27l-.11,1.68a.31.31,0,0,1-.31.26c-1.84,0-3.68.13-5.52.28a.23.23,0,0,1-.28-.25V9.75a.28.28,0,0,1,.28-.3c1.89-.16,3.77-.25,5.66-.28.18,0,.29.11.28.27l-.11,1.68a.31.31,0,0,1-.31.26Q51.78,11.41,50.3,11.49Z"/><path class="cls-5" d="M8.62,36.73c-1.48,0-2.39-1-2.39-2.69V31.74c0-1.7.84-2.46,2.19-2.5q1.2,0,2.4-.11c1.37-.09,2.21.6,2.21,2.3V32.7a.32.32,0,0,1-.29.32l-2,.25a.26.26,0,0,1-.29-.26V31.57a.23.23,0,0,0-.24-.22L9,31.4c-.16,0-.29.1-.29.25V34a.42.42,0,0,0,.47.46l1.42,0C12.14,34.38,13,35.28,13,37v2.28c0,1.69-.84,2.54-2.19,2.62q-1.2.07-2.4.11c-1.37,0-2.2-.73-2.2-2.42V38.29A.3.3,0,0,1,6.53,38l2-.15a.25.25,0,0,1,.29.26v1.44a.22.22,0,0,0,.24.23l1.2-.06a.27.27,0,0,0,.27-.23V37.14c0-.25-.11-.43-.47-.43Z"/><path class="cls-5" d="M17.4,30.69a.27.27,0,0,0-.24.27v2.48a.23.23,0,0,0,.29.24L19,33.46c.18,0,.29.07.27.24l-.11,1.67a.36.36,0,0,1-.31.3l-1.49.19a.27.27,0,0,0-.24.27v2.7c0,.16.09.26.24.24,1-.12,2-.26,3.06-.41.18,0,.29.07.27.23,0,.56-.07,1.12-.11,1.67a.36.36,0,0,1-.31.3c-1.82.26-3.63.49-5.45.67a.22.22,0,0,1-.27-.25V29.09a.28.28,0,0,1,.27-.3c1.86-.19,3.73-.43,5.59-.7.18,0,.29.07.27.23,0,.56-.07,1.12-.11,1.67a.36.36,0,0,1-.31.3Z"/><path class="cls-5" d="M22.24,40.58a.21.21,0,0,1-.27-.23v-10a2.49,2.49,0,0,1,2.19-2.8l2.31-.38c1.35-.22,2.2.39,2.2,2.09v10a.33.33,0,0,1-.29.32l-2,.34c-.18,0-.29-.06-.29-.22V37.59c0-.16-.11-.25-.29-.22l-1,.17a.28.28,0,0,0-.24.28v2.13a.31.31,0,0,1-.27.32Zm3.86-5.72V29.63a.2.2,0,0,0-.25-.19l-1.08.18a.28.28,0,0,0-.24.28v5.23c0,.16.11.26.29.23l1-.17A.31.31,0,0,0,26.11,34.86Z"/><path class="cls-5" d="M33.3,36.39a.31.31,0,0,0-.29.29v1.84a.3.3,0,0,1-.27.32l-2,.34a.22.22,0,0,1-.27-.23V26.75a.33.33,0,0,1,.27-.32l4.21-.71c1.35-.22,2.2.41,2.2,2.1v5.48a2.47,2.47,0,0,1-.78,2,.31.31,0,0,0-.05.35l.91,2.1a.22.22,0,0,1-.18.34l-2,.33a.3.3,0,0,1-.35-.18l-.78-1.84a.18.18,0,0,0-.22-.11Zm1.26-8.15c0-.16-.11-.25-.29-.22l-1,.17a.28.28,0,0,0-.24.28V34c0,.16.11.25.29.22l1-.17a.29.29,0,0,0,.24-.31Z"/><path class="cls-5" d="M40.86,37.56c-1.35.19-2.19-.45-2.19-2.14V27.59a2.45,2.45,0,0,1,2.19-2.77l2.31-.3c1.35-.16,2.2.51,2.2,2.21v1.35a.31.31,0,0,1-.29.3l-2,.3a.23.23,0,0,1-.29-.24V27c0-.15-.13-.22-.29-.2l-1,.13a.27.27,0,0,0-.24.27v7.87c0,.16.11.26.29.23l1-.13a.29.29,0,0,0,.26-.27V33.54a.3.3,0,0,1,.29-.31l2-.3a.24.24,0,0,1,.29.24v1.38a2.39,2.39,0,0,1-2.2,2.71Z"/><path class="cls-5" d="M49.84,31.25a.29.29,0,0,0-.29.27v4.86a.27.27,0,0,1-.27.29l-2,.16a.24.24,0,0,1-.27-.25V24.38a.3.3,0,0,1,.27-.3l2-.15a.23.23,0,0,1,.27.25v4.63a.25.25,0,0,0,.29.25L51.1,29a.27.27,0,0,0,.25-.28V24.09a.27.27,0,0,1,.25-.28l2-.05a.24.24,0,0,1,.25.27v12.2a.25.25,0,0,1-.25.28l-2,.05a.24.24,0,0,1-.25-.26V31.45a.26.26,0,0,0-.29-.26Z"/></g></g></svg>